<?xml version="1.0" encoding="utf-8" standalone="no"?>
<!DOCTYPE svg PUBLIC "-//W3C//DTD SVG 1.1//EN"
  "http://www.w3.org/Graphics/SVG/1.1/DTD/svg11.dtd">
<svg xmlns:xlink="http://www.w3.org/1999/xlink" width="421.818072pt" height="325.986375pt" viewBox="0 0 421.818072 325.986375" xmlns="http://www.w3.org/2000/svg" version="1.1">
 <metadata>
  <rdf:RDF xmlns:dc="http://purl.org/dc/elements/1.1/" xmlns:cc="http://creativecommons.org/ns#" xmlns:rdf="http://www.w3.org/1999/02/22-rdf-syntax-ns#">
   <cc:Work>
    <dc:type rdf:resource="http://purl.org/dc/dcmitype/StillImage"/>
    <dc:date>2023-06-24T19:34:23.650075</dc:date>
    <dc:format>image/svg+xml</dc:format>
    <dc:creator>
     <cc:Agent>
      <dc:title>Matplotlib v3.7.1, https://matplotlib.org/</dc:title>
     </cc:Agent>
    </dc:creator>
   </cc:Work>
  </rdf:RDF>
 </metadata>
 <defs>
  <style type="text/css">*{stroke-linejoin: round; stroke-linecap: butt}</style>
 </defs>
 <g id="figure_1">
  <g id="patch_1">
   <path d="M 0 325.986375 
L 421.818072 325.986375 
L 421.818072 0 
L 0 0 
L 0 325.986375 
z
" style="fill: none"/>
  </g>
  <g id="axes_1">
   <g id="patch_2">
    <path d="M 53.328125 288.430125 
L 410.448125 288.430125 
L 410.448125 22.318125 
L 53.328125 22.318125 
L 53.328125 288.430125 
z
" style="fill: none"/>
   </g>
   <g id="patch_3">
    <path d="M 363.069708 233.729982 
L 363.069708 127.026623 
L 316.894098 127.026623 
L 316.894098 89.138903 
L 394.215398 89.138903 
L 394.215398 233.729982 
z
" clip-path="url(#p4c3d74d249)" style="fill: #1f77b4; opacity: 0.5"/>
   </g>
   <g id="patch_4">
    <path d="M 70.492441 275.771626 
L 70.492435 34.414125 
L 218.613959 34.414125 
L 218.613959 203.084541 
L 197.187588 203.084541 
L 197.187588 258.653191 
L 201.14681 258.653191 
L 201.14681 276.334121 
L 69.560852 276.334125 
z
" clip-path="url(#p4c3d74d249)" style="fill: #1f77b4; opacity: 0.5"/>
   </g>
   <g id="patch_5">
    <path d="M 71.423892 226.659337 
L 102.502095 226.659337 
z
" clip-path="url(#p4c3d74d249)" style="fill: #1f77b4; opacity: 0.5"/>
   </g>
   <g id="patch_6">
    <path d="M 71.931728 184.799169 
L 102.031754 184.799169 
z
" clip-path="url(#p4c3d74d249)" style="fill: #1f77b4; opacity: 0.5"/>
   </g>
   <g id="patch_7">
    <path d="M 102.795258 76.668662 
L 102.795258 61.633621 
z
" clip-path="url(#p4c3d74d249)" style="fill: #1f77b4; opacity: 0.5"/>
   </g>
   <g id="patch_8">
    <path d="M 103.145814 61.633621 
L 71.603376 61.633621 
z
" clip-path="url(#p4c3d74d249)" style="fill: #1f77b4; opacity: 0.5"/>
   </g>
   <g id="patch_9">
    <path d="M 137.855475 36.436473 
L 137.855475 73.42798 
z
" clip-path="url(#p4c3d74d249)" style="fill: #1f77b4; opacity: 0.5"/>
   </g>
   <g id="patch_10">
    <path d="M 195.11566 64.73655 
L 217.149146 64.73655 
z
" clip-path="url(#p4c3d74d249)" style="fill: #1f77b4; opacity: 0.5"/>
   </g>
   <g id="patch_11">
    <path d="M 216.709355 93.142655 
L 184.692815 93.142655 
L 184.692815 100.456165 
z
" clip-path="url(#p4c3d74d249)" style="fill: #1f77b4; opacity: 0.5"/>
   </g>
   <g id="patch_12">
    <path d="M 216.972935 127.910166 
L 185.22026 127.910166 
z
" clip-path="url(#p4c3d74d249)" style="fill: #1f77b4; opacity: 0.5"/>
   </g>
   <g id="patch_13">
    <path d="M 102.631889 274.650444 
L 102.631889 258.934059 
z
" clip-path="url(#p4c3d74d249)" style="fill: #1f77b4; opacity: 0.5"/>
   </g>
   <g id="patch_14">
    <path d="M 102.775245 228.904536 
L 102.775245 217.397895 
z
" clip-path="url(#p4c3d74d249)" style="fill: #1f77b4; opacity: 0.5"/>
   </g>
   <g id="patch_15">
    <path d="M 102.690193 186.726112 
L 102.690193 174.257646 
z
" clip-path="url(#p4c3d74d249)" style="fill: #1f77b4; opacity: 0.5"/>
   </g>
   <g id="patch_16">
    <path d="M 102.596111 143.539542 
L 102.596111 131.297778 
z
" clip-path="url(#p4c3d74d249)" style="fill: #1f77b4; opacity: 0.5"/>
   </g>
   <g id="patch_17">
    <path d="M 127.828321 74.169918 
L 139.790541 74.169918 
z
" clip-path="url(#p4c3d74d249)" style="fill: #1f77b4; opacity: 0.5"/>
   </g>
   <g id="patch_18">
    <path d="M 185.264408 65.160547 
L 186.671731 65.160547 
z
" clip-path="url(#p4c3d74d249)" style="fill: #1f77b4; opacity: 0.5"/>
   </g>
   <g id="patch_19">
    <path d="M 71.603507 98.358985 
L 101.904188 98.358985 
z
" clip-path="url(#p4c3d74d249)" style="fill: #1f77b4; opacity: 0.5"/>
   </g>
   <g id="patch_20">
    <path d="M 170.487542 74.169918 
L 184.384838 74.169918 
L 184.384838 37.496409 
L 184.554859 37.378126 
z
" clip-path="url(#p4c3d74d249)" style="fill: #1f77b4; opacity: 0.5"/>
   </g>
   <g id="patch_21">
    <path d="M 71.743589 141.385897 
L 102.031736 141.385897 
z
" clip-path="url(#p4c3d74d249)" style="fill: #1f77b4; opacity: 0.5"/>
   </g>
   <g id="patch_22">
    <path d="M 102.617146 100.50686 
L 102.617146 96.425914 
z
" clip-path="url(#p4c3d74d249)" style="fill: #1f77b4; opacity: 0.5"/>
   </g>
   <g id="patch_23">
    <path d="M 199.469681 92.612687 
L 199.469681 89.326908 
z
" clip-path="url(#p4c3d74d249)" style="fill: #1f77b4; opacity: 0.5"/>
   </g>
   <g id="patch_24">
    <path d="M 199.557632 65.584516 
L 199.557632 79.151601 
z
" clip-path="url(#p4c3d74d249)" style="fill: #1f77b4; opacity: 0.5"/>
   </g>
   <g id="patch_25">
    <path d="M 184.604555 125.578323 
L 184.604555 135.223676 
z
" clip-path="url(#p4c3d74d249)" style="fill: #1f77b4; opacity: 0.5"/>
   </g>
   <g id="patch_26">
    <path d="M 216.797223 162.466823 
L 185.308413 162.466823 
z
" clip-path="url(#p4c3d74d249)" style="fill: #1f77b4; opacity: 0.5"/>
   </g>
   <g id="patch_27">
    <path d="M 184.604757 160.346965 
L 184.604757 164.904665 
z
" clip-path="url(#p4c3d74d249)" style="fill: #1f77b4; opacity: 0.5"/>
   </g>
   <g id="patch_28">
    <path d="M 184.780671 174.973986 
L 184.780671 181.651544 
L 217.412915 181.651544 
z
" clip-path="url(#p4c3d74d249)" style="fill: #1f77b4; opacity: 0.5"/>
   </g>
   <g id="patch_29">
    <path d="M 103.518611 273.422275 
L 103.518605 60.74932 
L 71.880434 60.74932 
L 71.880434 36.369758 
L 136.87864 36.369758 
L 136.87864 72.679714 
L 127.479903 72.679714 
L 127.479903 74.71552 
L 185.154632 74.71552 
L 185.154632 65.595053 
L 199.075987 65.595053 
L 199.075987 92.490137 
L 183.994648 92.490137 
L 183.994648 182.541787 
L 217.293707 182.541787 
L 217.293707 201.987798 
L 196.289794 201.987798 
L 196.289794 259.554057 
L 199.619684 259.554057 
L 199.619684 273.422271 
z
" clip-path="url(#p4c3d74d249)" style="fill: #1f77b4; opacity: 0.5"/>
   </g>
   <g id="patch_30">
    <path d="M 71.5249 140.605032 
L 71.5249 98.488921 
L 103.230344 98.488921 
L 103.230344 140.605032 
z
" clip-path="url(#p4c3d74d249)" style="fill: #1f77b4; opacity: 0.5"/>
   </g>
   <g id="patch_31">
    <path d="M 70.935029 97.600396 
L 70.935029 62.237176 
L 103.082872 62.237176 
L 103.082872 97.600396 
z
" clip-path="url(#p4c3d74d249)" style="fill: #1f77b4; opacity: 0.5"/>
   </g>
   <g id="patch_32">
    <path d="M 184.336425 127.276518 
L 184.336425 93.512622 
L 217.516537 93.512622 
L 217.516537 127.276518 
z
" clip-path="url(#p4c3d74d249)" style="fill: #1f77b4; opacity: 0.5"/>
   </g>
   <g id="patch_33">
    <path d="M 184.483897 180.943321 
L 184.483897 161.21811 
L 217.369077 161.21811 
L 217.369077 180.943321 
z
" clip-path="url(#p4c3d74d249)" style="fill: #1f77b4; opacity: 0.5"/>
   </g>
   <g id="patch_34">
    <path d="M 138.474994 73.07714 
L 138.474994 37.003092 
L 184.042348 37.003092 
L 184.042348 73.07714 
z
" clip-path="url(#p4c3d74d249)" style="fill: #1f77b4; opacity: 0.5"/>
   </g>
   <g id="patch_35">
    <path d="M 200.262797 92.624727 
L 200.262797 65.080489 
L 217.368982 65.080489 
L 217.368982 92.624727 
z
" clip-path="url(#p4c3d74d249)" style="fill: #1f77b4; opacity: 0.5"/>
   </g>
   <g id="patch_36">
    <path d="M 184.188965 161.21811 
L 184.188965 127.987332 
L 217.663997 127.987332 
L 217.663997 161.21811 
z
" clip-path="url(#p4c3d74d249)" style="fill: #1f77b4; opacity: 0.5"/>
   </g>
   <g id="patch_37">
    <path d="M 70.640085 275.126958 
L 70.640085 227.146692 
L 103.08286 227.146692 
L 103.08286 275.126958 
z
" clip-path="url(#p4c3d74d249)" style="fill: #1f77b4; opacity: 0.5"/>
   </g>
   <g id="patch_38">
    <path d="M 71.672366 183.964975 
L 71.672366 142.026675 
L 102.787939 142.026675 
L 102.787939 183.964975 
z
" clip-path="url(#p4c3d74d249)" style="fill: #1f77b4; opacity: 0.5"/>
   </g>
   <g id="patch_39">
    <path d="M 185.221151 64.369675 
L 185.221151 36.292335 
L 217.516466 36.292335 
L 217.516466 64.369675 
z
" clip-path="url(#p4c3d74d249)" style="fill: #1f77b4; opacity: 0.5"/>
   </g>
   <g id="patch_40">
    <path d="M 70.787551 226.435871 
L 70.787551 185.386088 
L 103.230332 185.386088 
L 103.230332 226.435871 
z
" clip-path="url(#p4c3d74d249)" style="fill: #1f77b4; opacity: 0.5"/>
   </g>
   <g id="PathCollection_1">
    <defs>
     <path id="m3418bba8f8" d="M 0 3 
C 0.795609 3 1.55874 2.683901 2.12132 2.12132 
C 2.683901 1.55874 3 0.795609 3 0 
C 3 -0.795609 2.683901 -1.55874 2.12132 -2.12132 
C 1.55874 -2.683901 0.795609 -3 0 -3 
C -0.795609 -3 -1.55874 -2.683901 -2.12132 -2.12132 
C -2.683901 -1.55874 -3 -0.795609 -3 0 
C -3 0.795609 -2.683901 1.55874 -2.12132 2.12132 
C -1.55874 2.683901 -0.795609 3 0 3 
z
" style="stroke: #ff0000"/>
    </defs>
    <g clip-path="url(#p4c3d74d249)">
     <use xlink:href="#m3418bba8f8" x="363.069708" y="233.729982" style="fill: #ff0000; stroke: #ff0000"/>
     <use xlink:href="#m3418bba8f8" x="363.069708" y="127.026623" style="fill: #ff0000; stroke: #ff0000"/>
     <use xlink:href="#m3418bba8f8" x="316.894098" y="127.026623" style="fill: #ff0000; stroke: #ff0000"/>
     <use xlink:href="#m3418bba8f8" x="316.894098" y="89.138903" style="fill: #ff0000; stroke: #ff0000"/>
     <use xlink:href="#m3418bba8f8" x="394.215398" y="89.138903" style="fill: #ff0000; stroke: #ff0000"/>
     <use xlink:href="#m3418bba8f8" x="394.215398" y="233.729982" style="fill: #ff0000; stroke: #ff0000"/>
     <use xlink:href="#m3418bba8f8" x="70.492441" y="275.771626" style="fill: #ff0000; stroke: #ff0000"/>
     <use xlink:href="#m3418bba8f8" x="70.492435" y="34.414125" style="fill: #ff0000; stroke: #ff0000"/>
     <use xlink:href="#m3418bba8f8" x="218.613959" y="34.414125" style="fill: #ff0000; stroke: #ff0000"/>
     <use xlink:href="#m3418bba8f8" x="218.613959" y="203.084541" style="fill: #ff0000; stroke: #ff0000"/>
     <use xlink:href="#m3418bba8f8" x="197.187588" y="203.084541" style="fill: #ff0000; stroke: #ff0000"/>
     <use xlink:href="#m3418bba8f8" x="197.187588" y="258.653191" style="fill: #ff0000; stroke: #ff0000"/>
     <use xlink:href="#m3418bba8f8" x="201.14681" y="258.653191" style="fill: #ff0000; stroke: #ff0000"/>
     <use xlink:href="#m3418bba8f8" x="201.14681" y="276.334121" style="fill: #ff0000; stroke: #ff0000"/>
     <use xlink:href="#m3418bba8f8" x="69.560852" y="276.334125" style="fill: #ff0000; stroke: #ff0000"/>
     <use xlink:href="#m3418bba8f8" x="71.423892" y="226.659337" style="fill: #ff0000; stroke: #ff0000"/>
     <use xlink:href="#m3418bba8f8" x="102.502095" y="226.659337" style="fill: #ff0000; stroke: #ff0000"/>
     <use xlink:href="#m3418bba8f8" x="71.931728" y="184.799169" style="fill: #ff0000; stroke: #ff0000"/>
     <use xlink:href="#m3418bba8f8" x="102.031754" y="184.799169" style="fill: #ff0000; stroke: #ff0000"/>
     <use xlink:href="#m3418bba8f8" x="102.795258" y="76.668662" style="fill: #ff0000; stroke: #ff0000"/>
     <use xlink:href="#m3418bba8f8" x="102.795258" y="61.633621" style="fill: #ff0000; stroke: #ff0000"/>
     <use xlink:href="#m3418bba8f8" x="103.145814" y="61.633621" style="fill: #ff0000; stroke: #ff0000"/>
     <use xlink:href="#m3418bba8f8" x="71.603376" y="61.633621" style="fill: #ff0000; stroke: #ff0000"/>
     <use xlink:href="#m3418bba8f8" x="137.855475" y="36.436473" style="fill: #ff0000; stroke: #ff0000"/>
     <use xlink:href="#m3418bba8f8" x="137.855475" y="73.42798" style="fill: #ff0000; stroke: #ff0000"/>
     <use xlink:href="#m3418bba8f8" x="195.11566" y="64.73655" style="fill: #ff0000; stroke: #ff0000"/>
     <use xlink:href="#m3418bba8f8" x="217.149146" y="64.73655" style="fill: #ff0000; stroke: #ff0000"/>
     <use xlink:href="#m3418bba8f8" x="216.709355" y="93.142655" style="fill: #ff0000; stroke: #ff0000"/>
     <use xlink:href="#m3418bba8f8" x="184.692815" y="93.142655" style="fill: #ff0000; stroke: #ff0000"/>
     <use xlink:href="#m3418bba8f8" x="184.692815" y="100.456165" style="fill: #ff0000; stroke: #ff0000"/>
     <use xlink:href="#m3418bba8f8" x="216.972935" y="127.910166" style="fill: #ff0000; stroke: #ff0000"/>
     <use xlink:href="#m3418bba8f8" x="185.22026" y="127.910166" style="fill: #ff0000; stroke: #ff0000"/>
     <use xlink:href="#m3418bba8f8" x="102.631889" y="274.650444" style="fill: #ff0000; stroke: #ff0000"/>
     <use xlink:href="#m3418bba8f8" x="102.631889" y="258.934059" style="fill: #ff0000; stroke: #ff0000"/>
     <use xlink:href="#m3418bba8f8" x="102.775245" y="228.904536" style="fill: #ff0000; stroke: #ff0000"/>
     <use xlink:href="#m3418bba8f8" x="102.775245" y="217.397895" style="fill: #ff0000; stroke: #ff0000"/>
     <use xlink:href="#m3418bba8f8" x="102.690193" y="186.726112" style="fill: #ff0000; stroke: #ff0000"/>
     <use xlink:href="#m3418bba8f8" x="102.690193" y="174.257646" style="fill: #ff0000; stroke: #ff0000"/>
     <use xlink:href="#m3418bba8f8" x="102.596111" y="143.539542" style="fill: #ff0000; stroke: #ff0000"/>
     <use xlink:href="#m3418bba8f8" x="102.596111" y="131.297778" style="fill: #ff0000; stroke: #ff0000"/>
     <use xlink:href="#m3418bba8f8" x="127.828321" y="74.169918" style="fill: #ff0000; stroke: #ff0000"/>
     <use xlink:href="#m3418bba8f8" x="139.790541" y="74.169918" style="fill: #ff0000; stroke: #ff0000"/>
     <use xlink:href="#m3418bba8f8" x="185.264408" y="65.160547" style="fill: #ff0000; stroke: #ff0000"/>
     <use xlink:href="#m3418bba8f8" x="186.671731" y="65.160547" style="fill: #ff0000; stroke: #ff0000"/>
     <use xlink:href="#m3418bba8f8" x="71.603507" y="98.358985" style="fill: #ff0000; stroke: #ff0000"/>
     <use xlink:href="#m3418bba8f8" x="101.904188" y="98.358985" style="fill: #ff0000; stroke: #ff0000"/>
     <use xlink:href="#m3418bba8f8" x="170.487542" y="74.169918" style="fill: #ff0000; stroke: #ff0000"/>
     <use xlink:href="#m3418bba8f8" x="184.384838" y="74.169918" style="fill: #ff0000; stroke: #ff0000"/>
     <use xlink:href="#m3418bba8f8" x="184.384838" y="37.496409" style="fill: #ff0000; stroke: #ff0000"/>
     <use xlink:href="#m3418bba8f8" x="184.554859" y="37.378126" style="fill: #ff0000; stroke: #ff0000"/>
     <use xlink:href="#m3418bba8f8" x="71.743589" y="141.385897" style="fill: #ff0000; stroke: #ff0000"/>
     <use xlink:href="#m3418bba8f8" x="102.031736" y="141.385897" style="fill: #ff0000; stroke: #ff0000"/>
     <use xlink:href="#m3418bba8f8" x="102.617146" y="100.50686" style="fill: #ff0000; stroke: #ff0000"/>
     <use xlink:href="#m3418bba8f8" x="102.617146" y="96.425914" style="fill: #ff0000; stroke: #ff0000"/>
     <use xlink:href="#m3418bba8f8" x="199.469681" y="92.612687" style="fill: #ff0000; stroke: #ff0000"/>
     <use xlink:href="#m3418bba8f8" x="199.469681" y="89.326908" style="fill: #ff0000; stroke: #ff0000"/>
     <use xlink:href="#m3418bba8f8" x="199.557632" y="65.584516" style="fill: #ff0000; stroke: #ff0000"/>
     <use xlink:href="#m3418bba8f8" x="199.557632" y="79.151601" style="fill: #ff0000; stroke: #ff0000"/>
     <use xlink:href="#m3418bba8f8" x="184.604555" y="125.578323" style="fill: #ff0000; stroke: #ff0000"/>
     <use xlink:href="#m3418bba8f8" x="184.604555" y="135.223676" style="fill: #ff0000; stroke: #ff0000"/>
     <use xlink:href="#m3418bba8f8" x="216.797223" y="162.466823" style="fill: #ff0000; stroke: #ff0000"/>
     <use xlink:href="#m3418bba8f8" x="185.308413" y="162.466823" style="fill: #ff0000; stroke: #ff0000"/>
     <use xlink:href="#m3418bba8f8" x="184.604757" y="160.346965" style="fill: #ff0000; stroke: #ff0000"/>
     <use xlink:href="#m3418bba8f8" x="184.604757" y="164.904665" style="fill: #ff0000; stroke: #ff0000"/>
     <use xlink:href="#m3418bba8f8" x="184.780671" y="174.973986" style="fill: #ff0000; stroke: #ff0000"/>
     <use xlink:href="#m3418bba8f8" x="184.780671" y="181.651544" style="fill: #ff0000; stroke: #ff0000"/>
     <use xlink:href="#m3418bba8f8" x="217.412915" y="181.651544" style="fill: #ff0000; stroke: #ff0000"/>
     <use xlink:href="#m3418bba8f8" x="103.518611" y="273.422275" style="fill: #ff0000; stroke: #ff0000"/>
     <use xlink:href="#m3418bba8f8" x="103.518605" y="60.74932" style="fill: #ff0000; stroke: #ff0000"/>
     <use xlink:href="#m3418bba8f8" x="71.880434" y="60.74932" style="fill: #ff0000; stroke: #ff0000"/>
     <use xlink:href="#m3418bba8f8" x="71.880434" y="36.369758" style="fill: #ff0000; stroke: #ff0000"/>
     <use xlink:href="#m3418bba8f8" x="136.87864" y="36.369758" style="fill: #ff0000; stroke: #ff0000"/>
     <use xlink:href="#m3418bba8f8" x="136.87864" y="72.679714" style="fill: #ff0000; stroke: #ff0000"/>
     <use xlink:href="#m3418bba8f8" x="127.479903" y="72.679714" style="fill: #ff0000; stroke: #ff0000"/>
     <use xlink:href="#m3418bba8f8" x="127.479903" y="74.71552" style="fill: #ff0000; stroke: #ff0000"/>
     <use xlink:href="#m3418bba8f8" x="185.154632" y="74.71552" style="fill: #ff0000; stroke: #ff0000"/>
     <use xlink:href="#m3418bba8f8" x="185.154632" y="65.595053" style="fill: #ff0000; stroke: #ff0000"/>
     <use xlink:href="#m3418bba8f8" x="199.075987" y="65.595053" style="fill: #ff0000; stroke: #ff0000"/>
     <use xlink:href="#m3418bba8f8" x="199.075987" y="92.490137" style="fill: #ff0000; stroke: #ff0000"/>
     <use xlink:href="#m3418bba8f8" x="183.994648" y="92.490137" style="fill: #ff0000; stroke: #ff0000"/>
     <use xlink:href="#m3418bba8f8" x="183.994648" y="182.541787" style="fill: #ff0000; stroke: #ff0000"/>
     <use xlink:href="#m3418bba8f8" x="217.293707" y="182.541787" style="fill: #ff0000; stroke: #ff0000"/>
     <use xlink:href="#m3418bba8f8" x="217.293707" y="201.987798" style="fill: #ff0000; stroke: #ff0000"/>
     <use xlink:href="#m3418bba8f8" x="196.289794" y="201.987798" style="fill: #ff0000; stroke: #ff0000"/>
     <use xlink:href="#m3418bba8f8" x="196.289794" y="259.554057" style="fill: #ff0000; stroke: #ff0000"/>
     <use xlink:href="#m3418bba8f8" x="199.619684" y="259.554057" style="fill: #ff0000; stroke: #ff0000"/>
     <use xlink:href="#m3418bba8f8" x="199.619684" y="273.422271" style="fill: #ff0000; stroke: #ff0000"/>
     <use xlink:href="#m3418bba8f8" x="71.5249" y="140.605032" style="fill: #ff0000; stroke: #ff0000"/>
     <use xlink:href="#m3418bba8f8" x="71.5249" y="98.488921" style="fill: #ff0000; stroke: #ff0000"/>
     <use xlink:href="#m3418bba8f8" x="103.230344" y="98.488921" style="fill: #ff0000; stroke: #ff0000"/>
     <use xlink:href="#m3418bba8f8" x="103.230344" y="140.605032" style="fill: #ff0000; stroke: #ff0000"/>
     <use xlink:href="#m3418bba8f8" x="70.935029" y="97.600396" style="fill: #ff0000; stroke: #ff0000"/>
     <use xlink:href="#m3418bba8f8" x="70.935029" y="62.237176" style="fill: #ff0000; stroke: #ff0000"/>
     <use xlink:href="#m3418bba8f8" x="103.082872" y="62.237176" style="fill: #ff0000; stroke: #ff0000"/>
     <use xlink:href="#m3418bba8f8" x="103.082872" y="97.600396" style="fill: #ff0000; stroke: #ff0000"/>
     <use xlink:href="#m3418bba8f8" x="184.336425" y="127.276518" style="fill: #ff0000; stroke: #ff0000"/>
     <use xlink:href="#m3418bba8f8" x="184.336425" y="93.512622" style="fill: #ff0000; stroke: #ff0000"/>
     <use xlink:href="#m3418bba8f8" x="217.516537" y="93.512622" style="fill: #ff0000; stroke: #ff0000"/>
     <use xlink:href="#m3418bba8f8" x="217.516537" y="127.276518" style="fill: #ff0000; stroke: #ff0000"/>
     <use xlink:href="#m3418bba8f8" x="184.483897" y="180.943321" style="fill: #ff0000; stroke: #ff0000"/>
     <use xlink:href="#m3418bba8f8" x="184.483897" y="161.21811" style="fill: #ff0000; stroke: #ff0000"/>
     <use xlink:href="#m3418bba8f8" x="217.369077" y="161.21811" style="fill: #ff0000; stroke: #ff0000"/>
     <use xlink:href="#m3418bba8f8" x="217.369077" y="180.943321" style="fill: #ff0000; stroke: #ff0000"/>
     <use xlink:href="#m3418bba8f8" x="138.474994" y="73.07714" style="fill: #ff0000; stroke: #ff0000"/>
     <use xlink:href="#m3418bba8f8" x="138.474994" y="37.003092" style="fill: #ff0000; stroke: #ff0000"/>
     <use xlink:href="#m3418bba8f8" x="184.042348" y="37.003092" style="fill: #ff0000; stroke: #ff0000"/>
     <use xlink:href="#m3418bba8f8" x="184.042348" y="73.07714" style="fill: #ff0000; stroke: #ff0000"/>
     <use xlink:href="#m3418bba8f8" x="200.262797" y="92.624727" style="fill: #ff0000; stroke: #ff0000"/>
     <use xlink:href="#m3418bba8f8" x="200.262797" y="65.080489" style="fill: #ff0000; stroke: #ff0000"/>
     <use xlink:href="#m3418bba8f8" x="217.368982" y="65.080489" style="fill: #ff0000; stroke: #ff0000"/>
     <use xlink:href="#m3418bba8f8" x="217.368982" y="92.624727" style="fill: #ff0000; stroke: #ff0000"/>
     <use xlink:href="#m3418bba8f8" x="184.188965" y="161.21811" style="fill: #ff0000; stroke: #ff0000"/>
     <use xlink:href="#m3418bba8f8" x="184.188965" y="127.987332" style="fill: #ff0000; stroke: #ff0000"/>
     <use xlink:href="#m3418bba8f8" x="217.663997" y="127.987332" style="fill: #ff0000; stroke: #ff0000"/>
     <use xlink:href="#m3418bba8f8" x="217.663997" y="161.21811" style="fill: #ff0000; stroke: #ff0000"/>
     <use xlink:href="#m3418bba8f8" x="70.640085" y="275.126958" style="fill: #ff0000; stroke: #ff0000"/>
     <use xlink:href="#m3418bba8f8" x="70.640085" y="227.146692" style="fill: #ff0000; stroke: #ff0000"/>
     <use xlink:href="#m3418bba8f8" x="103.08286" y="227.146692" style="fill: #ff0000; stroke: #ff0000"/>
     <use xlink:href="#m3418bba8f8" x="103.08286" y="275.126958" style="fill: #ff0000; stroke: #ff0000"/>
     <use xlink:href="#m3418bba8f8" x="71.672366" y="183.964975" style="fill: #ff0000; stroke: #ff0000"/>
     <use xlink:href="#m3418bba8f8" x="71.672366" y="142.026675" style="fill: #ff0000; stroke: #ff0000"/>
     <use xlink:href="#m3418bba8f8" x="102.787939" y="142.026675" style="fill: #ff0000; stroke: #ff0000"/>
     <use xlink:href="#m3418bba8f8" x="102.787939" y="183.964975" style="fill: #ff0000; stroke: #ff0000"/>
     <use xlink:href="#m3418bba8f8" x="185.221151" y="64.369675" style="fill: #ff0000; stroke: #ff0000"/>
     <use xlink:href="#m3418bba8f8" x="185.221151" y="36.292335" style="fill: #ff0000; stroke: #ff0000"/>
     <use xlink:href="#m3418bba8f8" x="217.516466" y="36.292335" style="fill: #ff0000; stroke: #ff0000"/>
     <use xlink:href="#m3418bba8f8" x="217.516466" y="64.369675" style="fill: #ff0000; stroke: #ff0000"/>
     <use xlink:href="#m3418bba8f8" x="70.787551" y="226.435871" style="fill: #ff0000; stroke: #ff0000"/>
     <use xlink:href="#m3418bba8f8" x="70.787551" y="185.386088" style="fill: #ff0000; stroke: #ff0000"/>
     <use xlink:href="#m3418bba8f8" x="103.230332" y="185.386088" style="fill: #ff0000; stroke: #ff0000"/>
     <use xlink:href="#m3418bba8f8" x="103.230332" y="226.435871" style="fill: #ff0000; stroke: #ff0000"/>
    </g>
   </g>
   <g id="matplotlib.axis_1">
    <g id="xtick_1">
     <g id="line2d_1">
      <defs>
       <path id="m9408243970" d="M 0 0 
L 0 3.5 
" style="stroke: #000000; stroke-width: 0.8"/>
      </defs>
      <g>
       <use xlink:href="#m9408243970" x="61.256578" y="288.430125" style="stroke: #000000; stroke-width: 0.8"/>
      </g>
     </g>
     <g id="text_1">
      <!-- 1000 -->
      <g transform="translate(48.531578 303.028562) scale(0.1 -0.1)">
       <defs>
        <path id="DejaVuSans-31" d="M 794 531 
L 1825 531 
L 1825 4091 
L 703 3866 
L 703 4441 
L 1819 4666 
L 2450 4666 
L 2450 531 
L 3481 531 
L 3481 0 
L 794 0 
L 794 531 
z
" transform="scale(0.015625)"/>
        <path id="DejaVuSans-30" d="M 2034 4250 
Q 1547 4250 1301 3770 
Q 1056 3291 1056 2328 
Q 1056 1369 1301 889 
Q 1547 409 2034 409 
Q 2525 409 2770 889 
Q 3016 1369 3016 2328 
Q 3016 3291 2770 3770 
Q 2525 4250 2034 4250 
z
M 2034 4750 
Q 2819 4750 3233 4129 
Q 3647 3509 3647 2328 
Q 3647 1150 3233 529 
Q 2819 -91 2034 -91 
Q 1250 -91 836 529 
Q 422 1150 422 2328 
Q 422 3509 836 4129 
Q 1250 4750 2034 4750 
z
" transform="scale(0.015625)"/>
       </defs>
       <use xlink:href="#DejaVuSans-31"/>
       <use xlink:href="#DejaVuSans-30" x="63.623047"/>
       <use xlink:href="#DejaVuSans-30" x="127.246094"/>
       <use xlink:href="#DejaVuSans-30" x="190.869141"/>
      </g>
     </g>
    </g>
    <g id="xtick_2">
     <g id="line2d_2">
      <g>
       <use xlink:href="#m9408243970" x="109.918935" y="288.430125" style="stroke: #000000; stroke-width: 0.8"/>
      </g>
     </g>
     <g id="text_2">
      <!-- 2000 -->
      <g transform="translate(97.193935 303.028562) scale(0.1 -0.1)">
       <defs>
        <path id="DejaVuSans-32" d="M 1228 531 
L 3431 531 
L 3431 0 
L 469 0 
L 469 531 
Q 828 903 1448 1529 
Q 2069 2156 2228 2338 
Q 2531 2678 2651 2914 
Q 2772 3150 2772 3378 
Q 2772 3750 2511 3984 
Q 2250 4219 1831 4219 
Q 1534 4219 1204 4116 
Q 875 4013 500 3803 
L 500 4441 
Q 881 4594 1212 4672 
Q 1544 4750 1819 4750 
Q 2544 4750 2975 4387 
Q 3406 4025 3406 3419 
Q 3406 3131 3298 2873 
Q 3191 2616 2906 2266 
Q 2828 2175 2409 1742 
Q 1991 1309 1228 531 
z
" transform="scale(0.015625)"/>
       </defs>
       <use xlink:href="#DejaVuSans-32"/>
       <use xlink:href="#DejaVuSans-30" x="63.623047"/>
       <use xlink:href="#DejaVuSans-30" x="127.246094"/>
       <use xlink:href="#DejaVuSans-30" x="190.869141"/>
      </g>
     </g>
    </g>
    <g id="xtick_3">
     <g id="line2d_3">
      <g>
       <use xlink:href="#m9408243970" x="158.581291" y="288.430125" style="stroke: #000000; stroke-width: 0.8"/>
      </g>
     </g>
     <g id="text_3">
      <!-- 3000 -->
      <g transform="translate(145.856291 303.028562) scale(0.1 -0.1)">
       <defs>
        <path id="DejaVuSans-33" d="M 2597 2516 
Q 3050 2419 3304 2112 
Q 3559 1806 3559 1356 
Q 3559 666 3084 287 
Q 2609 -91 1734 -91 
Q 1441 -91 1130 -33 
Q 819 25 488 141 
L 488 750 
Q 750 597 1062 519 
Q 1375 441 1716 441 
Q 2309 441 2620 675 
Q 2931 909 2931 1356 
Q 2931 1769 2642 2001 
Q 2353 2234 1838 2234 
L 1294 2234 
L 1294 2753 
L 1863 2753 
Q 2328 2753 2575 2939 
Q 2822 3125 2822 3475 
Q 2822 3834 2567 4026 
Q 2313 4219 1838 4219 
Q 1578 4219 1281 4162 
Q 984 4106 628 3988 
L 628 4550 
Q 988 4650 1302 4700 
Q 1616 4750 1894 4750 
Q 2613 4750 3031 4423 
Q 3450 4097 3450 3541 
Q 3450 3153 3228 2886 
Q 3006 2619 2597 2516 
z
" transform="scale(0.015625)"/>
       </defs>
       <use xlink:href="#DejaVuSans-33"/>
       <use xlink:href="#DejaVuSans-30" x="63.623047"/>
       <use xlink:href="#DejaVuSans-30" x="127.246094"/>
       <use xlink:href="#DejaVuSans-30" x="190.869141"/>
      </g>
     </g>
    </g>
    <g id="xtick_4">
     <g id="line2d_4">
      <g>
       <use xlink:href="#m9408243970" x="207.243647" y="288.430125" style="stroke: #000000; stroke-width: 0.8"/>
      </g>
     </g>
     <g id="text_4">
      <!-- 4000 -->
      <g transform="translate(194.518647 303.028562) scale(0.1 -0.1)">
       <defs>
        <path id="DejaVuSans-34" d="M 2419 4116 
L 825 1625 
L 2419 1625 
L 2419 4116 
z
M 2253 4666 
L 3047 4666 
L 3047 1625 
L 3713 1625 
L 3713 1100 
L 3047 1100 
L 3047 0 
L 2419 0 
L 2419 1100 
L 313 1100 
L 313 1709 
L 2253 4666 
z
" transform="scale(0.015625)"/>
       </defs>
       <use xlink:href="#DejaVuSans-34"/>
       <use xlink:href="#DejaVuSans-30" x="63.623047"/>
       <use xlink:href="#DejaVuSans-30" x="127.246094"/>
       <use xlink:href="#DejaVuSans-30" x="190.869141"/>
      </g>
     </g>
    </g>
    <g id="xtick_5">
     <g id="line2d_5">
      <g>
       <use xlink:href="#m9408243970" x="255.906004" y="288.430125" style="stroke: #000000; stroke-width: 0.8"/>
      </g>
     </g>
     <g id="text_5">
      <!-- 5000 -->
      <g transform="translate(243.181004 303.028562) scale(0.1 -0.1)">
       <defs>
        <path id="DejaVuSans-35" d="M 691 4666 
L 3169 4666 
L 3169 4134 
L 1269 4134 
L 1269 2991 
Q 1406 3038 1543 3061 
Q 1681 3084 1819 3084 
Q 2600 3084 3056 2656 
Q 3513 2228 3513 1497 
Q 3513 744 3044 326 
Q 2575 -91 1722 -91 
Q 1428 -91 1123 -41 
Q 819 9 494 109 
L 494 744 
Q 775 591 1075 516 
Q 1375 441 1709 441 
Q 2250 441 2565 725 
Q 2881 1009 2881 1497 
Q 2881 1984 2565 2268 
Q 2250 2553 1709 2553 
Q 1456 2553 1204 2497 
Q 953 2441 691 2322 
L 691 4666 
z
" transform="scale(0.015625)"/>
       </defs>
       <use xlink:href="#DejaVuSans-35"/>
       <use xlink:href="#DejaVuSans-30" x="63.623047"/>
       <use xlink:href="#DejaVuSans-30" x="127.246094"/>
       <use xlink:href="#DejaVuSans-30" x="190.869141"/>
      </g>
     </g>
    </g>
    <g id="xtick_6">
     <g id="line2d_6">
      <g>
       <use xlink:href="#m9408243970" x="304.56836" y="288.430125" style="stroke: #000000; stroke-width: 0.8"/>
      </g>
     </g>
     <g id="text_6">
      <!-- 6000 -->
      <g transform="translate(291.84336 303.028562) scale(0.1 -0.1)">
       <defs>
        <path id="DejaVuSans-36" d="M 2113 2584 
Q 1688 2584 1439 2293 
Q 1191 2003 1191 1497 
Q 1191 994 1439 701 
Q 1688 409 2113 409 
Q 2538 409 2786 701 
Q 3034 994 3034 1497 
Q 3034 2003 2786 2293 
Q 2538 2584 2113 2584 
z
M 3366 4563 
L 3366 3988 
Q 3128 4100 2886 4159 
Q 2644 4219 2406 4219 
Q 1781 4219 1451 3797 
Q 1122 3375 1075 2522 
Q 1259 2794 1537 2939 
Q 1816 3084 2150 3084 
Q 2853 3084 3261 2657 
Q 3669 2231 3669 1497 
Q 3669 778 3244 343 
Q 2819 -91 2113 -91 
Q 1303 -91 875 529 
Q 447 1150 447 2328 
Q 447 3434 972 4092 
Q 1497 4750 2381 4750 
Q 2619 4750 2861 4703 
Q 3103 4656 3366 4563 
z
" transform="scale(0.015625)"/>
       </defs>
       <use xlink:href="#DejaVuSans-36"/>
       <use xlink:href="#DejaVuSans-30" x="63.623047"/>
       <use xlink:href="#DejaVuSans-30" x="127.246094"/>
       <use xlink:href="#DejaVuSans-30" x="190.869141"/>
      </g>
     </g>
    </g>
    <g id="xtick_7">
     <g id="line2d_7">
      <g>
       <use xlink:href="#m9408243970" x="353.230716" y="288.430125" style="stroke: #000000; stroke-width: 0.8"/>
      </g>
     </g>
     <g id="text_7">
      <!-- 7000 -->
      <g transform="translate(340.505716 303.028562) scale(0.1 -0.1)">
       <defs>
        <path id="DejaVuSans-37" d="M 525 4666 
L 3525 4666 
L 3525 4397 
L 1831 0 
L 1172 0 
L 2766 4134 
L 525 4134 
L 525 4666 
z
" transform="scale(0.015625)"/>
       </defs>
       <use xlink:href="#DejaVuSans-37"/>
       <use xlink:href="#DejaVuSans-30" x="63.623047"/>
       <use xlink:href="#DejaVuSans-30" x="127.246094"/>
       <use xlink:href="#DejaVuSans-30" x="190.869141"/>
      </g>
     </g>
    </g>
    <g id="xtick_8">
     <g id="line2d_8">
      <g>
       <use xlink:href="#m9408243970" x="401.893072" y="288.430125" style="stroke: #000000; stroke-width: 0.8"/>
      </g>
     </g>
     <g id="text_8">
      <!-- 8000 -->
      <g transform="translate(389.168072 303.028562) scale(0.1 -0.1)">
       <defs>
        <path id="DejaVuSans-38" d="M 2034 2216 
Q 1584 2216 1326 1975 
Q 1069 1734 1069 1313 
Q 1069 891 1326 650 
Q 1584 409 2034 409 
Q 2484 409 2743 651 
Q 3003 894 3003 1313 
Q 3003 1734 2745 1975 
Q 2488 2216 2034 2216 
z
M 1403 2484 
Q 997 2584 770 2862 
Q 544 3141 544 3541 
Q 544 4100 942 4425 
Q 1341 4750 2034 4750 
Q 2731 4750 3128 4425 
Q 3525 4100 3525 3541 
Q 3525 3141 3298 2862 
Q 3072 2584 2669 2484 
Q 3125 2378 3379 2068 
Q 3634 1759 3634 1313 
Q 3634 634 3220 271 
Q 2806 -91 2034 -91 
Q 1263 -91 848 271 
Q 434 634 434 1313 
Q 434 1759 690 2068 
Q 947 2378 1403 2484 
z
M 1172 3481 
Q 1172 3119 1398 2916 
Q 1625 2713 2034 2713 
Q 2441 2713 2670 2916 
Q 2900 3119 2900 3481 
Q 2900 3844 2670 4047 
Q 2441 4250 2034 4250 
Q 1625 4250 1398 4047 
Q 1172 3844 1172 3481 
z
" transform="scale(0.015625)"/>
       </defs>
       <use xlink:href="#DejaVuSans-38"/>
       <use xlink:href="#DejaVuSans-30" x="63.623047"/>
       <use xlink:href="#DejaVuSans-30" x="127.246094"/>
       <use xlink:href="#DejaVuSans-30" x="190.869141"/>
      </g>
     </g>
    </g>
    <g id="text_9">
     <!-- X-coordinate -->
     <g transform="translate(200.240469 316.706687) scale(0.1 -0.1)">
      <defs>
       <path id="DejaVuSans-58" d="M 403 4666 
L 1081 4666 
L 2241 2931 
L 3406 4666 
L 4084 4666 
L 2584 2425 
L 4184 0 
L 3506 0 
L 2194 1984 
L 872 0 
L 191 0 
L 1856 2491 
L 403 4666 
z
" transform="scale(0.015625)"/>
       <path id="DejaVuSans-2d" d="M 313 2009 
L 1997 2009 
L 1997 1497 
L 313 1497 
L 313 2009 
z
" transform="scale(0.015625)"/>
       <path id="DejaVuSans-63" d="M 3122 3366 
L 3122 2828 
Q 2878 2963 2633 3030 
Q 2388 3097 2138 3097 
Q 1578 3097 1268 2742 
Q 959 2388 959 1747 
Q 959 1106 1268 751 
Q 1578 397 2138 397 
Q 2388 397 2633 464 
Q 2878 531 3122 666 
L 3122 134 
Q 2881 22 2623 -34 
Q 2366 -91 2075 -91 
Q 1284 -91 818 406 
Q 353 903 353 1747 
Q 353 2603 823 3093 
Q 1294 3584 2113 3584 
Q 2378 3584 2631 3529 
Q 2884 3475 3122 3366 
z
" transform="scale(0.015625)"/>
       <path id="DejaVuSans-6f" d="M 1959 3097 
Q 1497 3097 1228 2736 
Q 959 2375 959 1747 
Q 959 1119 1226 758 
Q 1494 397 1959 397 
Q 2419 397 2687 759 
Q 2956 1122 2956 1747 
Q 2956 2369 2687 2733 
Q 2419 3097 1959 3097 
z
M 1959 3584 
Q 2709 3584 3137 3096 
Q 3566 2609 3566 1747 
Q 3566 888 3137 398 
Q 2709 -91 1959 -91 
Q 1206 -91 779 398 
Q 353 888 353 1747 
Q 353 2609 779 3096 
Q 1206 3584 1959 3584 
z
" transform="scale(0.015625)"/>
       <path id="DejaVuSans-72" d="M 2631 2963 
Q 2534 3019 2420 3045 
Q 2306 3072 2169 3072 
Q 1681 3072 1420 2755 
Q 1159 2438 1159 1844 
L 1159 0 
L 581 0 
L 581 3500 
L 1159 3500 
L 1159 2956 
Q 1341 3275 1631 3429 
Q 1922 3584 2338 3584 
Q 2397 3584 2469 3576 
Q 2541 3569 2628 3553 
L 2631 2963 
z
" transform="scale(0.015625)"/>
       <path id="DejaVuSans-64" d="M 2906 2969 
L 2906 4863 
L 3481 4863 
L 3481 0 
L 2906 0 
L 2906 525 
Q 2725 213 2448 61 
Q 2172 -91 1784 -91 
Q 1150 -91 751 415 
Q 353 922 353 1747 
Q 353 2572 751 3078 
Q 1150 3584 1784 3584 
Q 2172 3584 2448 3432 
Q 2725 3281 2906 2969 
z
M 947 1747 
Q 947 1113 1208 752 
Q 1469 391 1925 391 
Q 2381 391 2643 752 
Q 2906 1113 2906 1747 
Q 2906 2381 2643 2742 
Q 2381 3103 1925 3103 
Q 1469 3103 1208 2742 
Q 947 2381 947 1747 
z
" transform="scale(0.015625)"/>
       <path id="DejaVuSans-69" d="M 603 3500 
L 1178 3500 
L 1178 0 
L 603 0 
L 603 3500 
z
M 603 4863 
L 1178 4863 
L 1178 4134 
L 603 4134 
L 603 4863 
z
" transform="scale(0.015625)"/>
       <path id="DejaVuSans-6e" d="M 3513 2113 
L 3513 0 
L 2938 0 
L 2938 2094 
Q 2938 2591 2744 2837 
Q 2550 3084 2163 3084 
Q 1697 3084 1428 2787 
Q 1159 2491 1159 1978 
L 1159 0 
L 581 0 
L 581 3500 
L 1159 3500 
L 1159 2956 
Q 1366 3272 1645 3428 
Q 1925 3584 2291 3584 
Q 2894 3584 3203 3211 
Q 3513 2838 3513 2113 
z
" transform="scale(0.015625)"/>
       <path id="DejaVuSans-61" d="M 2194 1759 
Q 1497 1759 1228 1600 
Q 959 1441 959 1056 
Q 959 750 1161 570 
Q 1363 391 1709 391 
Q 2188 391 2477 730 
Q 2766 1069 2766 1631 
L 2766 1759 
L 2194 1759 
z
M 3341 1997 
L 3341 0 
L 2766 0 
L 2766 531 
Q 2569 213 2275 61 
Q 1981 -91 1556 -91 
Q 1019 -91 701 211 
Q 384 513 384 1019 
Q 384 1609 779 1909 
Q 1175 2209 1959 2209 
L 2766 2209 
L 2766 2266 
Q 2766 2663 2505 2880 
Q 2244 3097 1772 3097 
Q 1472 3097 1187 3025 
Q 903 2953 641 2809 
L 641 3341 
Q 956 3463 1253 3523 
Q 1550 3584 1831 3584 
Q 2591 3584 2966 3190 
Q 3341 2797 3341 1997 
z
" transform="scale(0.015625)"/>
       <path id="DejaVuSans-74" d="M 1172 4494 
L 1172 3500 
L 2356 3500 
L 2356 3053 
L 1172 3053 
L 1172 1153 
Q 1172 725 1289 603 
Q 1406 481 1766 481 
L 2356 481 
L 2356 0 
L 1766 0 
Q 1100 0 847 248 
Q 594 497 594 1153 
L 594 3053 
L 172 3053 
L 172 3500 
L 594 3500 
L 594 4494 
L 1172 4494 
z
" transform="scale(0.015625)"/>
       <path id="DejaVuSans-65" d="M 3597 1894 
L 3597 1613 
L 953 1613 
Q 991 1019 1311 708 
Q 1631 397 2203 397 
Q 2534 397 2845 478 
Q 3156 559 3463 722 
L 3463 178 
Q 3153 47 2828 -22 
Q 2503 -91 2169 -91 
Q 1331 -91 842 396 
Q 353 884 353 1716 
Q 353 2575 817 3079 
Q 1281 3584 2069 3584 
Q 2775 3584 3186 3129 
Q 3597 2675 3597 1894 
z
M 3022 2063 
Q 3016 2534 2758 2815 
Q 2500 3097 2075 3097 
Q 1594 3097 1305 2825 
Q 1016 2553 972 2059 
L 3022 2063 
z
" transform="scale(0.015625)"/>
      </defs>
      <use xlink:href="#DejaVuSans-58"/>
      <use xlink:href="#DejaVuSans-2d" x="63.505859"/>
      <use xlink:href="#DejaVuSans-63" x="99.589844"/>
      <use xlink:href="#DejaVuSans-6f" x="154.570312"/>
      <use xlink:href="#DejaVuSans-6f" x="215.751953"/>
      <use xlink:href="#DejaVuSans-72" x="276.933594"/>
      <use xlink:href="#DejaVuSans-64" x="316.296875"/>
      <use xlink:href="#DejaVuSans-69" x="379.773438"/>
      <use xlink:href="#DejaVuSans-6e" x="407.556641"/>
      <use xlink:href="#DejaVuSans-61" x="470.935547"/>
      <use xlink:href="#DejaVuSans-74" x="532.214844"/>
      <use xlink:href="#DejaVuSans-65" x="571.423828"/>
     </g>
    </g>
   </g>
   <g id="matplotlib.axis_2">
    <g id="ytick_1">
     <g id="line2d_9">
      <defs>
       <path id="m3b8aafa81f" d="M 0 0 
L -3.5 0 
" style="stroke: #000000; stroke-width: 0.8"/>
      </defs>
      <g>
       <use xlink:href="#m3b8aafa81f" x="53.328125" y="265.255372" style="stroke: #000000; stroke-width: 0.8"/>
      </g>
     </g>
     <g id="text_10">
      <!-- 1000 -->
      <g transform="translate(20.878125 269.054591) scale(0.1 -0.1)">
       <use xlink:href="#DejaVuSans-31"/>
       <use xlink:href="#DejaVuSans-30" x="63.623047"/>
       <use xlink:href="#DejaVuSans-30" x="127.246094"/>
       <use xlink:href="#DejaVuSans-30" x="190.869141"/>
      </g>
     </g>
    </g>
    <g id="ytick_2">
     <g id="line2d_10">
      <g>
       <use xlink:href="#m3b8aafa81f" x="53.328125" y="206.615004" style="stroke: #000000; stroke-width: 0.8"/>
      </g>
     </g>
     <g id="text_11">
      <!-- 2000 -->
      <g transform="translate(20.878125 210.414222) scale(0.1 -0.1)">
       <use xlink:href="#DejaVuSans-32"/>
       <use xlink:href="#DejaVuSans-30" x="63.623047"/>
       <use xlink:href="#DejaVuSans-30" x="127.246094"/>
       <use xlink:href="#DejaVuSans-30" x="190.869141"/>
      </g>
     </g>
    </g>
    <g id="ytick_3">
     <g id="line2d_11">
      <g>
       <use xlink:href="#m3b8aafa81f" x="53.328125" y="147.974635" style="stroke: #000000; stroke-width: 0.8"/>
      </g>
     </g>
     <g id="text_12">
      <!-- 3000 -->
      <g transform="translate(20.878125 151.773854) scale(0.1 -0.1)">
       <use xlink:href="#DejaVuSans-33"/>
       <use xlink:href="#DejaVuSans-30" x="63.623047"/>
       <use xlink:href="#DejaVuSans-30" x="127.246094"/>
       <use xlink:href="#DejaVuSans-30" x="190.869141"/>
      </g>
     </g>
    </g>
    <g id="ytick_4">
     <g id="line2d_12">
      <g>
       <use xlink:href="#m3b8aafa81f" x="53.328125" y="89.334266" style="stroke: #000000; stroke-width: 0.8"/>
      </g>
     </g>
     <g id="text_13">
      <!-- 4000 -->
      <g transform="translate(20.878125 93.133485) scale(0.1 -0.1)">
       <use xlink:href="#DejaVuSans-34"/>
       <use xlink:href="#DejaVuSans-30" x="63.623047"/>
       <use xlink:href="#DejaVuSans-30" x="127.246094"/>
       <use xlink:href="#DejaVuSans-30" x="190.869141"/>
      </g>
     </g>
    </g>
    <g id="ytick_5">
     <g id="line2d_13">
      <g>
       <use xlink:href="#m3b8aafa81f" x="53.328125" y="30.693898" style="stroke: #000000; stroke-width: 0.8"/>
      </g>
     </g>
     <g id="text_14">
      <!-- 5000 -->
      <g transform="translate(20.878125 34.493116) scale(0.1 -0.1)">
       <use xlink:href="#DejaVuSans-35"/>
       <use xlink:href="#DejaVuSans-30" x="63.623047"/>
       <use xlink:href="#DejaVuSans-30" x="127.246094"/>
       <use xlink:href="#DejaVuSans-30" x="190.869141"/>
      </g>
     </g>
    </g>
    <g id="text_15">
     <!-- Y-coordinate -->
     <g transform="translate(14.798438 186.306937) rotate(-90) scale(0.1 -0.1)">
      <defs>
       <path id="DejaVuSans-59" d="M -13 4666 
L 666 4666 
L 1959 2747 
L 3244 4666 
L 3922 4666 
L 2272 2222 
L 2272 0 
L 1638 0 
L 1638 2222 
L -13 4666 
z
" transform="scale(0.015625)"/>
      </defs>
      <use xlink:href="#DejaVuSans-59"/>
      <use xlink:href="#DejaVuSans-2d" x="49.208984"/>
      <use xlink:href="#DejaVuSans-63" x="85.292969"/>
      <use xlink:href="#DejaVuSans-6f" x="140.273438"/>
      <use xlink:href="#DejaVuSans-6f" x="201.455078"/>
      <use xlink:href="#DejaVuSans-72" x="262.636719"/>
      <use xlink:href="#DejaVuSans-64" x="302"/>
      <use xlink:href="#DejaVuSans-69" x="365.476562"/>
      <use xlink:href="#DejaVuSans-6e" x="393.259766"/>
      <use xlink:href="#DejaVuSans-61" x="456.638672"/>
      <use xlink:href="#DejaVuSans-74" x="517.917969"/>
      <use xlink:href="#DejaVuSans-65" x="557.126953"/>
     </g>
    </g>
   </g>
   <g id="patch_41">
    <path d="M 53.328125 288.430125 
L 53.328125 22.318125 
" style="fill: none; stroke: #000000; stroke-width: 0.8; stroke-linejoin: miter; stroke-linecap: square"/>
   </g>
   <g id="patch_42">
    <path d="M 410.448125 288.430125 
L 410.448125 22.318125 
" style="fill: none; stroke: #000000; stroke-width: 0.8; stroke-linejoin: miter; stroke-linecap: square"/>
   </g>
   <g id="patch_43">
    <path d="M 53.328125 288.430125 
L 410.448125 288.430125 
" style="fill: none; stroke: #000000; stroke-width: 0.8; stroke-linejoin: miter; stroke-linecap: square"/>
   </g>
   <g id="patch_44">
    <path d="M 53.328125 22.318125 
L 410.448125 22.318125 
" style="fill: none; stroke: #000000; stroke-width: 0.8; stroke-linejoin: miter; stroke-linecap: square"/>
   </g>
   <g id="text_16">
    <!-- Plot of Polygons -->
    <g transform="translate(184.284688 16.318125) scale(0.12 -0.12)">
     <defs>
      <path id="DejaVuSans-50" d="M 1259 4147 
L 1259 2394 
L 2053 2394 
Q 2494 2394 2734 2622 
Q 2975 2850 2975 3272 
Q 2975 3691 2734 3919 
Q 2494 4147 2053 4147 
L 1259 4147 
z
M 628 4666 
L 2053 4666 
Q 2838 4666 3239 4311 
Q 3641 3956 3641 3272 
Q 3641 2581 3239 2228 
Q 2838 1875 2053 1875 
L 1259 1875 
L 1259 0 
L 628 0 
L 628 4666 
z
" transform="scale(0.015625)"/>
      <path id="DejaVuSans-6c" d="M 603 4863 
L 1178 4863 
L 1178 0 
L 603 0 
L 603 4863 
z
" transform="scale(0.015625)"/>
      <path id="DejaVuSans-20" transform="scale(0.015625)"/>
      <path id="DejaVuSans-66" d="M 2375 4863 
L 2375 4384 
L 1825 4384 
Q 1516 4384 1395 4259 
Q 1275 4134 1275 3809 
L 1275 3500 
L 2222 3500 
L 2222 3053 
L 1275 3053 
L 1275 0 
L 697 0 
L 697 3053 
L 147 3053 
L 147 3500 
L 697 3500 
L 697 3744 
Q 697 4328 969 4595 
Q 1241 4863 1831 4863 
L 2375 4863 
z
" transform="scale(0.015625)"/>
      <path id="DejaVuSans-79" d="M 2059 -325 
Q 1816 -950 1584 -1140 
Q 1353 -1331 966 -1331 
L 506 -1331 
L 506 -850 
L 844 -850 
Q 1081 -850 1212 -737 
Q 1344 -625 1503 -206 
L 1606 56 
L 191 3500 
L 800 3500 
L 1894 763 
L 2988 3500 
L 3597 3500 
L 2059 -325 
z
" transform="scale(0.015625)"/>
      <path id="DejaVuSans-67" d="M 2906 1791 
Q 2906 2416 2648 2759 
Q 2391 3103 1925 3103 
Q 1463 3103 1205 2759 
Q 947 2416 947 1791 
Q 947 1169 1205 825 
Q 1463 481 1925 481 
Q 2391 481 2648 825 
Q 2906 1169 2906 1791 
z
M 3481 434 
Q 3481 -459 3084 -895 
Q 2688 -1331 1869 -1331 
Q 1566 -1331 1297 -1286 
Q 1028 -1241 775 -1147 
L 775 -588 
Q 1028 -725 1275 -790 
Q 1522 -856 1778 -856 
Q 2344 -856 2625 -561 
Q 2906 -266 2906 331 
L 2906 616 
Q 2728 306 2450 153 
Q 2172 0 1784 0 
Q 1141 0 747 490 
Q 353 981 353 1791 
Q 353 2603 747 3093 
Q 1141 3584 1784 3584 
Q 2172 3584 2450 3431 
Q 2728 3278 2906 2969 
L 2906 3500 
L 3481 3500 
L 3481 434 
z
" transform="scale(0.015625)"/>
      <path id="DejaVuSans-73" d="M 2834 3397 
L 2834 2853 
Q 2591 2978 2328 3040 
Q 2066 3103 1784 3103 
Q 1356 3103 1142 2972 
Q 928 2841 928 2578 
Q 928 2378 1081 2264 
Q 1234 2150 1697 2047 
L 1894 2003 
Q 2506 1872 2764 1633 
Q 3022 1394 3022 966 
Q 3022 478 2636 193 
Q 2250 -91 1575 -91 
Q 1294 -91 989 -36 
Q 684 19 347 128 
L 347 722 
Q 666 556 975 473 
Q 1284 391 1588 391 
Q 1994 391 2212 530 
Q 2431 669 2431 922 
Q 2431 1156 2273 1281 
Q 2116 1406 1581 1522 
L 1381 1569 
Q 847 1681 609 1914 
Q 372 2147 372 2553 
Q 372 3047 722 3315 
Q 1072 3584 1716 3584 
Q 2034 3584 2315 3537 
Q 2597 3491 2834 3397 
z
" transform="scale(0.015625)"/>
     </defs>
     <use xlink:href="#DejaVuSans-50"/>
     <use xlink:href="#DejaVuSans-6c" x="60.302734"/>
     <use xlink:href="#DejaVuSans-6f" x="88.085938"/>
     <use xlink:href="#DejaVuSans-74" x="149.267578"/>
     <use xlink:href="#DejaVuSans-20" x="188.476562"/>
     <use xlink:href="#DejaVuSans-6f" x="220.263672"/>
     <use xlink:href="#DejaVuSans-66" x="281.445312"/>
     <use xlink:href="#DejaVuSans-20" x="316.650391"/>
     <use xlink:href="#DejaVuSans-50" x="348.4375"/>
     <use xlink:href="#DejaVuSans-6f" x="405.115234"/>
     <use xlink:href="#DejaVuSans-6c" x="466.296875"/>
     <use xlink:href="#DejaVuSans-79" x="494.080078"/>
     <use xlink:href="#DejaVuSans-67" x="553.259766"/>
     <use xlink:href="#DejaVuSans-6f" x="616.736328"/>
     <use xlink:href="#DejaVuSans-6e" x="677.917969"/>
     <use xlink:href="#DejaVuSans-73" x="741.296875"/>
    </g>
   </g>
  </g>
 </g>
 <defs>
  <clipPath id="p4c3d74d249">
   <rect x="53.328125" y="22.318125" width="357.12" height="266.112"/>
  </clipPath>
 </defs>
</svg>
